<svg version="1.2" xmlns="http://www.w3.org/2000/svg" viewBox="0 0 250 150" width="250" height="150"><style>tspan{white-space:pre}.a{font-size: 50px;fill: #ffffff;font-weight: 900;font-family: "PlayfairDisplaySC-Black", "Playfair Display SC"}.b{fill:#fff}</style><text style="transform:matrix(1.093,0,0,1,43.907,86)" ><tspan x="0" y="0" class="a">MSCU</tspan><tspan  y="0" class="a">T
</tspan></text><path class="b" d="m38.9 77.4c-1-1.7-2.6-2.8-4.2-3.3-1.3-0.3-2.7-0.2-3.9 0.4l-3.5-5.7c2.2-4.1 7.1-13.3 7.9-14.7 1.1-1.9-0.9-4.1-0.9-4.1l-9.1 15.2-9.2-15.2c0 0-2 2.2-0.9 4.1 0.9 1.4 5.7 10.6 7.9 14.7l-3.5 5.7c-1.2-0.6-2.5-0.7-3.8-0.4-1.7 0.5-3.2 1.6-4.3 3.3-1.8 3-1.1 6.6 1.6 8 1.2 0.6 2.5 0.7 3.9 0.4 1.6-0.4 3.2-1.5 4.2-3.2q0.6-1.1 0.9-2.3 0 0 0 0 0-0.1 0-0.2c0.8-4.8 2.2-7.2 3.2-8.4 1 1.2 2.4 3.6 3.1 8.4q0.1 0.1 0.1 0.2 0 0 0 0 0.2 1.2 0.9 2.3c1 1.7 2.5 2.8 4.2 3.2 1.3 0.3 2.7 0.2 3.9-0.4 2.6-1.4 3.3-5 1.5-8zm-20.4 3.8c-0.6 0.9-1.5 1.6-2.4 1.9-0.5 0.1-1.1 0.2-1.6-0.1-1.2-0.7-1.4-2.6-0.5-4.2 0.6-1 1.5-1.7 2.5-1.9 0.4-0.1 1-0.2 1.6 0.1 1.2 0.7 1.4 2.6 0.4 4.2zm17.4 1.8c-0.6 0.3-1.2 0.2-1.6 0.1-1-0.3-1.9-1-2.4-1.9-1-1.6-0.8-3.5 0.4-4.2 0.6-0.3 1.2-0.2 1.6-0.1 0.9 0.2 1.8 0.9 2.4 1.9 1 1.6 0.8 3.5-0.4 4.2z"/></svg>